<svg xmlns="http://www.w3.org/2000/svg" xmlns:xlink="http://www.w3.org/1999/xlink" width="2000" zoomAndPan="magnify" viewBox="0 0 1500 1499.999933" height="2000" preserveAspectRatio="xMidYMid meet" version="1.0"><defs><filter x="0%" y="0%" width="100%" height="100%" id="a8b819c508"><feColorMatrix values="0 0 0 0 1 0 0 0 0 1 0 0 0 0 1 0 0 0 1 0" color-interpolation-filters="sRGB"/></filter><g/><clipPath id="d9e4a2b9eb"><path d="M 0 0.746094 L 1500 0.746094 L 1500 1281.253906 L 0 1281.253906 Z M 0 0.746094 " clip-rule="nonzero"/></clipPath><clipPath id="8e0a046779"><path d="M 0 0.746094 L 1500 0.746094 L 1500 1281.253906 L 0 1281.253906 Z M 0 0.746094 " clip-rule="nonzero"/></clipPath><clipPath id="2e3b5bc1a3"><path d="M 0 47.71875 L 1500 47.71875 L 1500 1233.511719 L 0 1233.511719 Z M 0 47.71875 " clip-rule="nonzero"/></clipPath><linearGradient x1="800" gradientTransform="matrix(0.769954, 0, 0, 0.770101, 133.652103, 475.043146)" y1="-554.895962" x2="800" gradientUnits="userSpaceOnUse" y2="984.895931" id="f4a858ca04"><stop stop-opacity="1" stop-color="rgb(48.629761%, 80.778503%, 41.958618%)" offset="0"/><stop stop-opacity="1" stop-color="rgb(48.629761%, 80.778503%, 41.958618%)" offset="0.25"/><stop stop-opacity="1" stop-color="rgb(48.629761%, 80.778503%, 41.958618%)" offset="0.375"/><stop stop-opacity="1" stop-color="rgb(48.629761%, 80.778503%, 41.958618%)" offset="0.390625"/><stop stop-opacity="1" stop-color="rgb(48.629761%, 80.778503%, 41.958618%)" offset="0.398438"/><stop stop-opacity="1" stop-color="rgb(49.194336%, 81.079102%, 42.578125%)" offset="0.402344"/><stop stop-opacity="1" stop-color="rgb(49.758911%, 81.381226%, 43.199158%)" offset="0.40625"/><stop stop-opacity="1" stop-color="rgb(50.463867%, 81.756592%, 43.972778%)" offset="0.410156"/><stop stop-opacity="1" stop-color="rgb(51.168823%, 82.131958%, 44.746399%)" offset="0.414062"/><stop stop-opacity="1" stop-color="rgb(51.872253%, 82.507324%, 45.52002%)" offset="0.417969"/><stop stop-opacity="1" stop-color="rgb(52.577209%, 82.88269%, 46.29364%)" offset="0.421875"/><stop stop-opacity="1" stop-color="rgb(53.282166%, 83.258057%, 47.067261%)" offset="0.425781"/><stop stop-opacity="1" stop-color="rgb(53.987122%, 83.633423%, 47.840881%)" offset="0.429688"/><stop stop-opacity="1" stop-color="rgb(54.690552%, 84.008789%, 48.614502%)" offset="0.433594"/><stop stop-opacity="1" stop-color="rgb(55.395508%, 84.384155%, 49.388123%)" offset="0.4375"/><stop stop-opacity="1" stop-color="rgb(56.100464%, 84.759521%, 50.161743%)" offset="0.441406"/><stop stop-opacity="1" stop-color="rgb(56.80542%, 85.134888%, 50.935364%)" offset="0.445312"/><stop stop-opacity="1" stop-color="rgb(57.50885%, 85.510254%, 51.708984%)" offset="0.449219"/><stop stop-opacity="1" stop-color="rgb(58.213806%, 85.88562%, 52.482605%)" offset="0.453125"/><stop stop-opacity="1" stop-color="rgb(58.918762%, 86.260986%, 53.2547%)" offset="0.457031"/><stop stop-opacity="1" stop-color="rgb(59.623718%, 86.636353%, 54.02832%)" offset="0.460938"/><stop stop-opacity="1" stop-color="rgb(60.327148%, 87.011719%, 54.801941%)" offset="0.464844"/><stop stop-opacity="1" stop-color="rgb(61.032104%, 87.387085%, 55.575562%)" offset="0.46875"/><stop stop-opacity="1" stop-color="rgb(61.737061%, 87.762451%, 56.349182%)" offset="0.472656"/><stop stop-opacity="1" stop-color="rgb(62.442017%, 88.137817%, 57.122803%)" offset="0.476563"/><stop stop-opacity="1" stop-color="rgb(63.145447%, 88.513184%, 57.896423%)" offset="0.480469"/><stop stop-opacity="1" stop-color="rgb(63.850403%, 88.88855%, 58.670044%)" offset="0.484375"/><stop stop-opacity="1" stop-color="rgb(64.555359%, 89.263916%, 59.443665%)" offset="0.488281"/><stop stop-opacity="1" stop-color="rgb(65.260315%, 89.639282%, 60.217285%)" offset="0.492188"/><stop stop-opacity="1" stop-color="rgb(65.963745%, 90.013123%, 60.990906%)" offset="0.496094"/><stop stop-opacity="1" stop-color="rgb(66.668701%, 90.388489%, 61.764526%)" offset="0.5"/><stop stop-opacity="1" stop-color="rgb(67.373657%, 90.763855%, 62.538147%)" offset="0.503906"/><stop stop-opacity="1" stop-color="rgb(68.078613%, 91.139221%, 63.311768%)" offset="0.507812"/><stop stop-opacity="1" stop-color="rgb(68.782043%, 91.514587%, 64.085388%)" offset="0.511719"/><stop stop-opacity="1" stop-color="rgb(69.487%, 91.889954%, 64.859009%)" offset="0.515625"/><stop stop-opacity="1" stop-color="rgb(70.191956%, 92.26532%, 65.631104%)" offset="0.519531"/><stop stop-opacity="1" stop-color="rgb(70.896912%, 92.640686%, 66.404724%)" offset="0.523438"/><stop stop-opacity="1" stop-color="rgb(71.600342%, 93.016052%, 67.178345%)" offset="0.527344"/><stop stop-opacity="1" stop-color="rgb(72.305298%, 93.391418%, 67.951965%)" offset="0.53125"/><stop stop-opacity="1" stop-color="rgb(73.010254%, 93.766785%, 68.725586%)" offset="0.535156"/><stop stop-opacity="1" stop-color="rgb(73.71521%, 94.142151%, 69.499207%)" offset="0.539063"/><stop stop-opacity="1" stop-color="rgb(74.41864%, 94.517517%, 70.272827%)" offset="0.542969"/><stop stop-opacity="1" stop-color="rgb(75.123596%, 94.892883%, 71.046448%)" offset="0.546875"/><stop stop-opacity="1" stop-color="rgb(75.828552%, 95.26825%, 71.820068%)" offset="0.550781"/><stop stop-opacity="1" stop-color="rgb(76.533508%, 95.643616%, 72.593689%)" offset="0.554688"/><stop stop-opacity="1" stop-color="rgb(77.238464%, 96.018982%, 73.36731%)" offset="0.558594"/><stop stop-opacity="1" stop-color="rgb(77.94342%, 96.394348%, 74.14093%)" offset="0.5625"/><stop stop-opacity="1" stop-color="rgb(78.646851%, 96.769714%, 74.914551%)" offset="0.566406"/><stop stop-opacity="1" stop-color="rgb(79.351807%, 97.145081%, 75.688171%)" offset="0.570313"/><stop stop-opacity="1" stop-color="rgb(80.056763%, 97.520447%, 76.461792%)" offset="0.574219"/><stop stop-opacity="1" stop-color="rgb(80.761719%, 97.895813%, 77.235413%)" offset="0.578125"/><stop stop-opacity="1" stop-color="rgb(81.465149%, 98.271179%, 78.007507%)" offset="0.582031"/><stop stop-opacity="1" stop-color="rgb(82.170105%, 98.646545%, 78.781128%)" offset="0.585938"/><stop stop-opacity="1" stop-color="rgb(82.875061%, 99.021912%, 79.554749%)" offset="0.589844"/><stop stop-opacity="1" stop-color="rgb(83.580017%, 99.397278%, 80.328369%)" offset="0.59375"/><stop stop-opacity="1" stop-color="rgb(84.144592%, 99.697876%, 80.947876%)" offset="0.597656"/><stop stop-opacity="1" stop-color="rgb(84.709167%, 100%, 81.568909%)" offset="0.601563"/><stop stop-opacity="1" stop-color="rgb(84.709167%, 100%, 81.568909%)" offset="0.609375"/><stop stop-opacity="1" stop-color="rgb(84.709167%, 100%, 81.568909%)" offset="0.625"/><stop stop-opacity="1" stop-color="rgb(84.709167%, 100%, 81.568909%)" offset="0.75"/><stop stop-opacity="1" stop-color="rgb(84.709167%, 100%, 81.568909%)" offset="1"/></linearGradient><clipPath id="efeb347406"><rect x="0" width="1500" y="0" height="1282"/></clipPath><clipPath id="8bdcab51a7"><path d="M 0 0.746094 L 1500 0.746094 L 1500 1281.253906 L 0 1281.253906 Z M 0 0.746094 " clip-rule="nonzero"/></clipPath><clipPath id="7a32e3e404"><rect x="0" width="1500" y="0" height="1282"/></clipPath><clipPath id="1742dd6d8e"><rect x="0" width="1500" y="0" height="1282"/></clipPath><mask id="92135e07e8"><g filter="url(#a8b819c508)"><g transform="matrix(1, 0, 0, 1, 0, 0.000000000000113687)"><g clip-path="url(#1742dd6d8e)"><g clip-path="url(#8bdcab51a7)"><g transform="matrix(1, 0, 0, 1, 0, 0.000000000000113687)"><g clip-path="url(#7a32e3e404)"><g fill="#000000" fill-opacity="1"><g transform="translate(255.144439, 699.90471)"><g><path d="M 180.671875 -138.703125 L 180.671875 -137.28125 C 180.671875 -137.445312 180.671875 -137.566406 180.671875 -137.640625 C 180.671875 -137.722656 180.671875 -137.84375 180.671875 -138 C 180.671875 -138.15625 180.671875 -138.269531 180.671875 -138.34375 C 180.671875 -138.425781 180.671875 -138.546875 180.671875 -138.703125 Z M 185.1875 -10.203125 C 186.132812 -8.929688 186.445312 -7.03125 186.125 -4.5 C 185.65625 -1.34375 183.835938 0.234375 180.671875 0.234375 L 154.59375 0.234375 C 152.539062 0.234375 150.878906 -0.238281 149.609375 -1.1875 C 149.140625 -1.5 148.707031 -1.972656 148.3125 -2.609375 C 147.914062 -3.242188 147.484375 -3.875 147.015625 -4.5 L 104.09375 -80.625 L 54.0625 -80.625 L 54.0625 -8.0625 C 54.0625 -4.425781 53.226562 -2.132812 51.5625 -1.1875 C 49.90625 -0.238281 48.523438 0.234375 47.421875 0.234375 L 25.84375 0.234375 C 24.738281 0.234375 23.316406 -0.238281 21.578125 -1.1875 C 19.835938 -2.132812 18.96875 -4.425781 18.96875 -8.0625 L 18.96875 -107.640625 C 18.96875 -111.273438 19.835938 -113.523438 21.578125 -114.390625 C 23.316406 -115.265625 24.738281 -115.703125 25.84375 -115.703125 L 128.984375 -115.703125 C 134.992188 -115.703125 139.179688 -117.441406 141.546875 -120.921875 C 144.078125 -124.398438 145.34375 -130.09375 145.34375 -138 C 145.34375 -145.90625 144.078125 -151.59375 141.546875 -155.0625 C 139.179688 -158.539062 134.992188 -160.28125 128.984375 -160.28125 L 25.84375 -160.28125 C 24.738281 -160.28125 23.316406 -160.710938 21.578125 -161.578125 C 19.835938 -162.453125 18.96875 -164.707031 18.96875 -168.34375 L 18.96875 -187.078125 C 18.96875 -190.867188 19.835938 -193.195312 21.578125 -194.0625 C 23.316406 -194.9375 24.738281 -195.375 25.84375 -195.375 L 135.15625 -195.375 C 151.4375 -195.375 163.132812 -190.316406 170.25 -180.203125 C 177.039062 -170.398438 180.515625 -156.332031 180.671875 -138 C 180.515625 -119.664062 177.039062 -105.597656 170.25 -95.796875 C 164.238281 -87.578125 155.382812 -82.753906 143.6875 -81.328125 Z M 185.1875 -10.203125 "/></g></g></g><g fill="#000000" fill-opacity="1"><g transform="translate(472.339519, 699.90471)"><g><path d="M 161.46875 -42.4375 C 162.570312 -42.4375 163.992188 -42 165.734375 -41.125 C 167.472656 -40.257812 168.34375 -38.007812 168.34375 -34.375 L 168.34375 -8.296875 C 168.34375 -4.660156 167.472656 -2.40625 165.734375 -1.53125 C 163.992188 -0.664062 162.570312 -0.234375 161.46875 -0.234375 L 77.296875 -0.234375 C 72.078125 -0.234375 67.253906 -0.550781 62.828125 -1.1875 C 58.398438 -1.820312 54.367188 -2.847656 50.734375 -4.265625 C 42.992188 -6.953125 36.832031 -11.300781 32.25 -17.3125 C 27.507812 -23.476562 24.109375 -31.222656 22.046875 -40.546875 C 21.253906 -44.492188 20.582031 -48.835938 20.03125 -53.578125 C 19.476562 -58.328125 19.125 -63.46875 18.96875 -69 L 18.96875 -70.1875 L 19.4375 -100.0625 C 19.914062 -101.800781 20.785156 -103.773438 22.046875 -105.984375 C 25.523438 -112.148438 30.898438 -115.472656 38.171875 -115.953125 L 160.515625 -116.1875 C 161.472656 -116.1875 162.816406 -115.75 164.546875 -114.875 C 166.285156 -114.007812 167.15625 -111.757812 167.15625 -108.125 L 167.15625 -89.390625 C 167.15625 -85.753906 166.285156 -83.460938 164.546875 -82.515625 C 162.816406 -81.566406 161.472656 -81.09375 160.515625 -81.09375 L 54.53125 -81.09375 C 54.53125 -81.09375 54.488281 -80.222656 54.40625 -78.484375 C 54.332031 -76.742188 54.253906 -74.765625 54.171875 -72.546875 C 54.097656 -70.335938 54.0625 -68.363281 54.0625 -66.625 C 54.0625 -64.882812 54.0625 -64.015625 54.0625 -64.015625 C 54.21875 -63.390625 54.296875 -62.71875 54.296875 -62 C 54.296875 -61.289062 54.375 -60.617188 54.53125 -59.984375 C 55.164062 -55.554688 56.507812 -52 58.5625 -49.3125 C 60.457031 -46.945312 62.828125 -45.210938 65.671875 -44.109375 C 67.410156 -43.628906 69.269531 -43.226562 71.25 -42.90625 C 73.226562 -42.59375 75.484375 -42.4375 78.015625 -42.4375 Z M 39.828125 -114.046875 Z M 161.703125 -195.859375 C 162.648438 -195.859375 163.992188 -195.378906 165.734375 -194.421875 C 167.472656 -193.472656 168.34375 -191.179688 168.34375 -187.546875 L 168.34375 -168.828125 C 168.34375 -165.191406 167.472656 -162.894531 165.734375 -161.9375 C 163.992188 -160.988281 162.648438 -160.515625 161.703125 -160.515625 L 25.375 -160.765625 C 24.425781 -160.765625 23.117188 -161.195312 21.453125 -162.0625 C 19.796875 -162.9375 18.96875 -165.191406 18.96875 -168.828125 L 18.96875 -187.3125 C 18.96875 -191.101562 19.796875 -193.472656 21.453125 -194.421875 C 23.117188 -195.378906 24.425781 -195.859375 25.375 -195.859375 Z M 161.703125 -195.859375 "/></g></g></g><g fill="#000000" fill-opacity="1"><g transform="translate(671.514016, 699.90471)"><g><path d="M 207.9375 -197.984375 C 209.675781 -197.984375 210.941406 -197.585938 211.734375 -196.796875 C 212.523438 -196.003906 213 -195.296875 213.15625 -194.671875 C 213.632812 -193.085938 213.398438 -191.109375 212.453125 -188.734375 L 146.53125 -24.65625 C 142.894531 -15.96875 139.414062 -10.195312 136.09375 -7.34375 C 135.3125 -6.5625 134.128906 -5.773438 132.546875 -4.984375 C 127.640625 -1.503906 122.1875 0.234375 116.1875 0.234375 C 109.707031 0.234375 103.816406 -1.738281 98.515625 -5.6875 C 93.222656 -9.644531 89.707031 -14.785156 87.96875 -21.109375 C 87.8125 -21.578125 87.570312 -22.128906 87.25 -22.765625 C 86.9375 -23.398438 86.625 -24.03125 86.3125 -24.65625 L 19.921875 -188.734375 C 18.972656 -191.109375 18.734375 -193.085938 19.203125 -194.671875 C 19.359375 -195.140625 19.789062 -195.804688 20.5 -196.671875 C 21.21875 -197.546875 22.445312 -197.984375 24.1875 -197.984375 L 49.796875 -197.984375 C 53.273438 -197.984375 55.488281 -196.320312 56.4375 -193 L 115.46875 -46.234375 C 115.625 -46.078125 115.703125 -45.921875 115.703125 -45.765625 C 115.703125 -45.609375 115.703125 -45.53125 115.703125 -45.53125 L 116.65625 -45.765625 C 116.65625 -45.765625 116.691406 -45.800781 116.765625 -45.875 C 116.847656 -45.957031 116.890625 -46.078125 116.890625 -46.234375 L 174.984375 -193 C 176.410156 -196.320312 178.703125 -197.984375 181.859375 -197.984375 Z M 207.9375 -197.984375 "/></g></g></g><g fill="#000000" fill-opacity="1"><g transform="translate(915.739923, 699.90471)"><g><path d="M 47.421875 -195.375 C 48.367188 -195.375 49.710938 -194.898438 51.453125 -193.953125 C 53.191406 -193.003906 54.0625 -190.710938 54.0625 -187.078125 L 54.0625 -8.0625 C 54.0625 -4.425781 53.191406 -2.132812 51.453125 -1.1875 C 49.710938 -0.238281 48.367188 0.234375 47.421875 0.234375 L 25.609375 0.234375 C 24.660156 0.234375 23.316406 -0.238281 21.578125 -1.1875 C 19.835938 -2.132812 18.96875 -4.425781 18.96875 -8.0625 L 18.96875 -187.078125 C 18.96875 -190.710938 19.835938 -193.003906 21.578125 -193.953125 C 23.316406 -194.898438 24.660156 -195.375 25.609375 -195.375 Z M 47.421875 -195.375 "/></g></g></g><g fill="#000000" fill-opacity="1"><g transform="translate(1000.626189, 699.90471)"><g><path d="M 207.9375 -197.984375 C 209.675781 -197.984375 210.941406 -197.585938 211.734375 -196.796875 C 212.523438 -196.003906 213 -195.296875 213.15625 -194.671875 C 213.632812 -193.085938 213.398438 -191.109375 212.453125 -188.734375 L 146.53125 -24.65625 C 142.894531 -15.96875 139.414062 -10.195312 136.09375 -7.34375 C 135.3125 -6.5625 134.128906 -5.773438 132.546875 -4.984375 C 127.640625 -1.503906 122.1875 0.234375 116.1875 0.234375 C 109.707031 0.234375 103.816406 -1.738281 98.515625 -5.6875 C 93.222656 -9.644531 89.707031 -14.785156 87.96875 -21.109375 C 87.8125 -21.578125 87.570312 -22.128906 87.25 -22.765625 C 86.9375 -23.398438 86.625 -24.03125 86.3125 -24.65625 L 19.921875 -188.734375 C 18.972656 -191.109375 18.734375 -193.085938 19.203125 -194.671875 C 19.359375 -195.140625 19.789062 -195.804688 20.5 -196.671875 C 21.21875 -197.546875 22.445312 -197.984375 24.1875 -197.984375 L 49.796875 -197.984375 C 53.273438 -197.984375 55.488281 -196.320312 56.4375 -193 L 115.46875 -46.234375 C 115.625 -46.078125 115.703125 -45.921875 115.703125 -45.765625 C 115.703125 -45.609375 115.703125 -45.53125 115.703125 -45.53125 L 116.65625 -45.765625 C 116.65625 -45.765625 116.691406 -45.800781 116.765625 -45.875 C 116.847656 -45.957031 116.890625 -46.078125 116.890625 -46.234375 L 174.984375 -193 C 176.410156 -196.320312 178.703125 -197.984375 181.859375 -197.984375 Z M 207.9375 -197.984375 "/></g></g></g></g></g></g></g></g></g></mask><clipPath id="1656eadfe4"><path d="M 0 47.71875 L 1500 47.71875 L 1500 1233.511719 L 0 1233.511719 Z M 0 47.71875 " clip-rule="nonzero"/></clipPath><clipPath id="e48760cf1b"><rect x="0" width="1500" y="0" height="1282"/></clipPath><clipPath id="526be3cbf1"><rect x="0" width="1500" y="0" height="1282"/></clipPath><clipPath id="b0021ea8ad"><rect x="0" width="1500" y="0" height="1282"/></clipPath></defs><g transform="matrix(1, 0, 0, 1, 0, 109)"><g clip-path="url(#b0021ea8ad)"><g fill="#a6a6a6" fill-opacity="1"><g transform="translate(255.144439, 699.90471)"><g><path d="M 189.570312 -138.710938 L 189.570312 -137.289062 L 171.789062 -137.289062 L 171.789062 -138.710938 Z M 171.789062 -138.710938 L 189.570312 -138.710938 L 189.570312 -137.289062 L 171.789062 -137.289062 Z M 192.296875 -15.53125 C 194.683594 -12.351562 195.570312 -8.308594 194.957031 -3.402344 L 194.945312 -3.292969 L 194.925781 -3.1875 C 194.367188 0.554688 192.808594 3.539062 190.25 5.761719 C 187.667969 8.007812 184.476562 9.128906 180.679688 9.128906 L 154.597656 9.128906 C 150.566406 9.128906 147.128906 8.0625 144.28125 5.929688 L 149.617188 -1.1875 L 144.6875 6.214844 C 143.148438 5.1875 141.84375 3.820312 140.773438 2.105469 C 140.511719 1.6875 140.21875 1.261719 139.894531 0.828125 L 139.550781 0.367188 L 96.347656 -76.25 L 104.09375 -80.617188 L 104.09375 -71.726562 L 54.0625 -71.726562 L 54.0625 -80.617188 L 62.953125 -80.617188 L 62.953125 -8.0625 C 62.953125 -0.984375 60.628906 3.878906 55.984375 6.535156 C 52.957031 8.265625 50.101562 9.128906 47.421875 9.128906 L 25.84375 9.128906 C 23.226562 9.128906 20.386719 8.292969 17.320312 6.621094 C 12.492188 3.988281 10.078125 -0.90625 10.078125 -8.0625 L 10.078125 -107.648438 C 10.078125 -114.949219 12.585938 -119.851562 17.601562 -122.359375 C 20.589844 -123.855469 23.339844 -124.601562 25.84375 -124.601562 L 128.988281 -124.601562 C 131.863281 -124.601562 133.601562 -125.046875 134.210938 -125.9375 L 134.285156 -126.046875 L 134.363281 -126.15625 C 135.761719 -128.078125 136.457031 -132.023438 136.457031 -138 C 136.457031 -143.976562 135.761719 -147.921875 134.363281 -149.84375 L 134.285156 -149.949219 L 134.210938 -150.0625 C 133.601562 -150.953125 131.863281 -151.394531 128.988281 -151.394531 L 25.84375 -151.394531 C 23.339844 -151.394531 20.589844 -152.144531 17.601562 -153.640625 C 12.585938 -156.148438 10.078125 -161.050781 10.078125 -168.351562 L 10.078125 -187.082031 C 10.078125 -194.539062 12.585938 -199.523438 17.601562 -202.03125 C 20.589844 -203.527344 23.339844 -204.273438 25.84375 -204.273438 L 135.15625 -204.273438 C 154.515625 -204.273438 168.636719 -197.957031 177.519531 -185.320312 C 185.382812 -173.988281 189.398438 -158.238281 189.570312 -138.078125 C 189.398438 -117.8125 185.390625 -102.027344 177.554688 -90.726562 L 177.492188 -90.636719 L 177.425781 -90.546875 C 169.902344 -80.25 159.015625 -74.234375 144.765625 -72.503906 L 143.691406 -81.328125 L 151.371094 -85.808594 L 192.867188 -14.675781 L 185.183594 -10.195312 Z M 177.761719 -5.273438 L 129.199219 -88.523438 L 142.617188 -90.15625 C 151.761719 -91.269531 158.578125 -94.898438 163.066406 -101.039062 L 170.246094 -95.792969 L 162.941406 -100.859375 C 168.695312 -109.160156 171.644531 -121.515625 171.789062 -137.921875 C 171.644531 -154.433594 168.707031 -166.824219 162.972656 -175.089844 C 157.628906 -182.691406 148.359375 -186.488281 135.15625 -186.488281 L 25.84375 -186.488281 C 26.175781 -186.488281 26.410156 -186.511719 26.546875 -186.550781 C 26.308594 -186.480469 25.980469 -186.335938 25.554688 -186.125 C 26.773438 -186.734375 27.570312 -187.546875 27.953125 -188.570312 C 27.890625 -188.40625 27.859375 -187.910156 27.859375 -187.082031 L 27.859375 -168.351562 C 27.859375 -167.875 27.882812 -167.488281 27.929688 -167.179688 L 27.917969 -167.136719 C 27.523438 -168.152344 26.738281 -168.953125 25.554688 -169.546875 C 25.980469 -169.332031 26.308594 -169.191406 26.546875 -169.117188 C 26.410156 -169.160156 26.175781 -169.179688 25.84375 -169.179688 L 128.988281 -169.179688 C 138.128906 -169.179688 144.765625 -166.148438 148.902344 -160.082031 L 141.554688 -155.070312 L 148.746094 -160.300781 C 152.410156 -155.265625 154.242188 -147.832031 154.242188 -138 C 154.242188 -128.167969 152.410156 -120.734375 148.746094 -115.699219 L 141.554688 -120.925781 L 148.902344 -115.917969 C 144.765625 -109.851562 138.128906 -106.820312 128.988281 -106.820312 L 25.84375 -106.820312 C 26.175781 -106.820312 26.410156 -106.839844 26.546875 -106.882812 C 26.308594 -106.808594 25.980469 -106.667969 25.554688 -106.453125 C 26.738281 -107.046875 27.523438 -107.847656 27.917969 -108.863281 L 27.929688 -108.816406 C 27.882812 -108.511719 27.859375 -108.121094 27.859375 -107.648438 L 27.859375 -8.0625 C 27.859375 -7.332031 27.886719 -6.898438 27.933594 -6.769531 C 27.589844 -7.675781 26.890625 -8.414062 25.835938 -8.992188 C 26.242188 -8.769531 26.550781 -8.625 26.761719 -8.554688 C 26.558594 -8.621094 26.253906 -8.65625 25.84375 -8.65625 L 47.421875 -8.65625 C 46.988281 -8.65625 46.648438 -8.613281 46.40625 -8.53125 C 46.566406 -8.585938 46.816406 -8.710938 47.160156 -8.90625 C 46.097656 -8.300781 45.40625 -7.546875 45.078125 -6.644531 C 45.140625 -6.8125 45.167969 -7.285156 45.167969 -8.0625 L 45.167969 -89.511719 L 109.285156 -89.511719 L 154.753906 -8.871094 L 147.011719 -4.503906 L 154.125 -9.839844 C 154.75 -9.007812 155.324219 -8.167969 155.855469 -7.320312 C 155.574219 -7.769531 155.136719 -8.191406 154.550781 -8.585938 L 154.757812 -8.445312 L 154.953125 -8.300781 C 154.710938 -8.480469 154.476562 -8.605469 154.253906 -8.667969 L 154.257812 -8.671875 C 154.347656 -8.660156 154.460938 -8.65625 154.597656 -8.65625 L 180.679688 -8.65625 C 180.042969 -8.65625 179.34375 -8.324219 178.578125 -7.660156 C 178.117188 -7.253906 177.761719 -6.800781 177.519531 -6.300781 C 177.414062 -6.082031 177.355469 -5.925781 177.339844 -5.824219 L 186.132812 -4.503906 L 177.308594 -5.609375 C 177.359375 -6.015625 177.378906 -6.265625 177.363281 -6.363281 C 177.441406 -5.886719 177.679688 -5.386719 178.070312 -4.859375 Z M 177.761719 -5.273438 "/></g></g></g><g fill="#a6a6a6" fill-opacity="1"><g transform="translate(472.339519, 699.90471)"><g><path d="M 161.472656 -51.335938 C 163.980469 -51.335938 166.726562 -50.585938 169.71875 -49.09375 C 174.734375 -46.585938 177.242188 -41.679688 177.242188 -34.382812 L 177.242188 -8.300781 C 177.242188 -1 174.734375 3.902344 169.71875 6.410156 C 166.726562 7.90625 163.980469 8.65625 161.472656 8.65625 L 77.296875 8.65625 C 71.660156 8.65625 66.421875 8.308594 61.578125 7.617188 C 56.46875 6.886719 51.777344 5.6875 47.5 4.011719 L 50.742188 -4.269531 L 47.828125 4.132812 C 38.394531 0.859375 30.847656 -4.488281 25.179688 -11.914062 C 19.644531 -19.109375 15.707031 -28.015625 13.367188 -38.632812 C 12.507812 -42.933594 11.785156 -47.574219 11.203125 -52.558594 C 10.621094 -57.558594 10.246094 -62.953125 10.082031 -68.746094 L 10.078125 -68.871094 L 10.078125 -70.183594 L 10.570312 -101.320312 L 10.863281 -102.402344 C 11.539062 -104.867188 12.691406 -107.535156 14.332031 -110.402344 C 16.804688 -114.785156 20.03125 -118.207031 24.019531 -120.667969 C 27.960938 -123.105469 32.488281 -124.488281 37.597656 -124.820312 L 37.875 -124.839844 L 160.507812 -125.078125 C 162.867188 -125.078125 165.542969 -124.328125 168.53125 -122.835938 C 173.546875 -120.328125 176.054688 -115.421875 176.054688 -108.125 L 176.054688 -89.390625 C 176.054688 -82.238281 173.640625 -77.34375 168.8125 -74.710938 C 165.75 -73.035156 162.984375 -72.199219 160.527344 -72.199219 L 54.535156 -72.199219 L 54.535156 -81.09375 L 63.417969 -80.6875 L 63.300781 -78.082031 C 63.222656 -76.371094 63.144531 -74.421875 63.066406 -72.238281 C 62.992188 -70.132812 62.953125 -68.261719 62.953125 -66.628906 L 62.953125 -64.019531 L 54.0625 -64.019531 L 62.6875 -66.175781 C 63.023438 -64.835938 63.191406 -63.445312 63.191406 -62.003906 C 63.191406 -62.023438 63.179688 -62.070312 63.164062 -62.144531 L 63.273438 -61.703125 L 63.339844 -61.246094 C 63.75 -58.355469 64.515625 -56.179688 65.628906 -54.722656 C 66.453125 -53.695312 67.542969 -52.917969 68.902344 -52.390625 L 65.679688 -44.101562 L 68.019531 -52.683594 C 69.449219 -52.292969 70.996094 -51.964844 72.65625 -51.699219 C 74.167969 -51.457031 75.953125 -51.335938 78.011719 -51.335938 Z M 161.472656 -33.550781 L 78.011719 -33.550781 C 75.007812 -33.550781 72.289062 -33.746094 69.847656 -34.136719 C 67.554688 -34.503906 65.386719 -34.964844 63.339844 -35.523438 L 62.890625 -35.648438 L 62.457031 -35.816406 C 58.128906 -37.5 54.476562 -40.199219 51.503906 -43.917969 C 48.507812 -47.835938 46.585938 -52.773438 45.734375 -58.730469 L 54.535156 -59.988281 L 45.910156 -57.832031 C 45.574219 -59.171875 45.40625 -60.5625 45.40625 -62.003906 C 45.40625 -61.988281 45.417969 -61.941406 45.433594 -61.863281 L 45.167969 -62.925781 L 45.167969 -66.628906 C 45.167969 -68.472656 45.210938 -70.554688 45.292969 -72.875 C 45.375 -75.117188 45.453125 -77.121094 45.535156 -78.886719 L 46.039062 -89.984375 L 160.527344 -89.984375 C 159.984375 -89.984375 159.570312 -89.933594 159.285156 -89.832031 C 159.507812 -89.914062 159.847656 -90.074219 160.296875 -90.320312 C 159.242188 -89.746094 158.542969 -89.003906 158.199219 -88.097656 C 158.246094 -88.230469 158.273438 -88.660156 158.273438 -89.390625 L 158.273438 -108.125 C 158.273438 -108.597656 158.25 -108.988281 158.203125 -109.292969 L 158.21875 -109.339844 C 158.609375 -108.324219 159.394531 -107.519531 160.578125 -106.929688 C 160.109375 -107.164062 159.753906 -107.320312 159.507812 -107.398438 C 159.726562 -107.328125 160.070312 -107.292969 160.542969 -107.292969 L 38.191406 -107.054688 L 38.175781 -115.949219 L 38.753906 -107.074219 C 36.589844 -106.933594 34.792969 -106.421875 33.363281 -105.539062 C 31.972656 -104.679688 30.777344 -103.359375 29.773438 -101.578125 C 28.882812 -100.019531 28.296875 -98.734375 28.023438 -97.722656 L 19.441406 -100.0625 L 28.335938 -99.921875 L 27.859375 -70.183594 L 27.859375 -69 L 18.96875 -69 L 27.855469 -69.253906 C 28.007812 -63.980469 28.34375 -59.101562 28.867188 -54.617188 C 29.394531 -50.113281 30.015625 -46.0625 30.734375 -42.460938 C 32.503906 -34.425781 35.367188 -27.839844 39.316406 -22.703125 C 42.816406 -18.117188 47.597656 -14.769531 53.65625 -12.667969 L 53.820312 -12.613281 L 53.980469 -12.546875 C 56.976562 -11.375 60.347656 -10.523438 64.09375 -9.988281 C 68.101562 -9.414062 72.503906 -9.128906 77.296875 -9.128906 L 161.472656 -9.128906 C 161.140625 -9.128906 160.90625 -9.109375 160.773438 -9.066406 C 161.007812 -9.140625 161.339844 -9.28125 161.765625 -9.496094 C 160.582031 -8.902344 159.792969 -8.097656 159.402344 -7.085938 L 159.390625 -7.128906 C 159.4375 -7.4375 159.457031 -7.824219 159.457031 -8.300781 L 159.457031 -34.382812 C 159.457031 -34.855469 159.4375 -35.246094 159.390625 -35.550781 L 159.402344 -35.597656 C 159.792969 -34.582031 160.582031 -33.777344 161.765625 -33.1875 C 161.339844 -33.398438 161.007812 -33.542969 160.773438 -33.613281 C 160.90625 -33.570312 161.140625 -33.550781 161.472656 -33.550781 Z M 161.710938 -204.746094 C 164.171875 -204.746094 166.933594 -203.910156 170 -202.238281 C 174.828125 -199.605469 177.242188 -194.710938 177.242188 -187.554688 L 177.242188 -168.824219 C 177.242188 -161.667969 174.828125 -156.777344 170 -154.140625 C 166.933594 -152.46875 164.171875 -151.632812 161.710938 -151.632812 L 25.355469 -151.871094 C 22.957031 -151.871094 20.285156 -152.644531 17.332031 -154.191406 C 12.496094 -156.722656 10.078125 -161.601562 10.078125 -168.824219 L 10.078125 -187.320312 C 10.078125 -194.554688 12.402344 -199.496094 17.046875 -202.152344 C 20.074219 -203.882812 22.847656 -204.746094 25.371094 -204.746094 Z M 161.710938 -186.964844 L 25.371094 -186.964844 C 25.941406 -186.964844 26.390625 -187.023438 26.71875 -187.144531 C 26.542969 -187.078125 26.261719 -186.933594 25.871094 -186.710938 C 26.964844 -187.335938 27.667969 -188.101562 27.984375 -189.003906 C 27.902344 -188.769531 27.859375 -188.207031 27.859375 -187.320312 L 27.859375 -168.824219 C 27.859375 -168.0625 27.886719 -167.617188 27.933594 -167.480469 C 27.5625 -168.5 26.777344 -169.320312 25.585938 -169.945312 C 25.992188 -169.730469 26.292969 -169.589844 26.492188 -169.523438 C 26.234375 -169.609375 25.863281 -169.65625 25.386719 -169.65625 L 161.710938 -169.417969 C 161.167969 -169.417969 160.757812 -169.367188 160.46875 -169.265625 C 160.695312 -169.34375 161.03125 -169.507812 161.484375 -169.753906 C 160.425781 -169.179688 159.726562 -168.4375 159.382812 -167.53125 C 159.433594 -167.664062 159.457031 -168.09375 159.457031 -168.824219 L 159.457031 -187.554688 C 159.457031 -188.289062 159.433594 -188.71875 159.382812 -188.847656 C 159.726562 -187.945312 160.425781 -187.203125 161.484375 -186.625 C 161.03125 -186.871094 160.695312 -187.035156 160.46875 -187.113281 C 160.757812 -187.015625 161.167969 -186.964844 161.710938 -186.964844 Z M 161.710938 -186.964844 "/></g></g></g><g fill="#a6a6a6" fill-opacity="1"><g transform="translate(671.514016, 699.90471)"><g><path d="M 207.949219 -206.882812 C 212.140625 -206.882812 215.503906 -205.617188 218.03125 -203.089844 C 219.980469 -201.140625 221.234375 -199.050781 221.789062 -196.828125 L 213.164062 -194.667969 L 221.679688 -197.226562 C 222.75 -193.660156 222.425781 -189.734375 220.710938 -185.441406 L 154.785156 -21.34375 C 150.578125 -11.277344 146.277344 -4.359375 141.890625 -0.597656 L 136.101562 -7.351562 L 142.390625 -1.0625 C 140.917969 0.40625 138.964844 1.753906 136.523438 2.972656 L 132.546875 -4.980469 L 137.691406 2.273438 C 131.25 6.84375 124.082031 9.128906 116.183594 9.128906 C 107.734375 9.128906 100.074219 6.566406 93.203125 1.4375 C 86.277344 -3.734375 81.671875 -10.460938 79.394531 -18.746094 L 87.96875 -21.101562 L 79.535156 -18.292969 C 79.507812 -18.367188 79.433594 -18.53125 79.304688 -18.785156 L 78.199219 -21 L 11.675781 -185.40625 C 9.949219 -189.722656 9.621094 -193.660156 10.6875 -197.226562 L 10.726562 -197.355469 L 10.769531 -197.480469 C 11.273438 -198.992188 12.226562 -200.601562 13.628906 -202.316406 C 16.117188 -205.359375 19.636719 -206.882812 24.183594 -206.882812 L 49.792969 -206.882812 C 53.507812 -206.882812 56.710938 -205.875 59.398438 -203.859375 C 62.097656 -201.832031 63.960938 -199.03125 64.984375 -195.453125 L 56.433594 -193.011719 L 64.683594 -196.328125 L 123.722656 -49.554688 L 115.472656 -46.238281 L 121.761719 -52.523438 C 123.65625 -50.628906 124.601562 -48.375 124.601562 -45.761719 L 124.601562 -45.527344 L 115.710938 -45.527344 L 113.554688 -54.152344 L 114.503906 -54.390625 L 116.660156 -45.761719 L 110.371094 -52.050781 L 110.492188 -52.167969 C 108.832031 -50.511719 108.003906 -48.535156 108.003906 -46.238281 L 108.003906 -47.933594 L 166.765625 -196.398438 L 166.816406 -196.511719 C 168.171875 -199.679688 170.085938 -202.15625 172.558594 -203.945312 C 175.261719 -205.902344 178.363281 -206.882812 181.867188 -206.882812 Z M 207.949219 -189.097656 L 181.867188 -189.097656 C 182.207031 -189.097656 182.582031 -189.246094 182.992188 -189.542969 C 183.152344 -189.660156 183.269531 -189.769531 183.347656 -189.871094 C 183.300781 -189.8125 183.242188 -189.691406 183.164062 -189.507812 L 174.988281 -193.011719 L 183.257812 -189.738281 L 125.164062 -42.964844 L 116.898438 -46.238281 L 125.789062 -46.238281 C 125.789062 -43.625 124.882812 -41.410156 123.066406 -39.59375 L 121.207031 -37.734375 L 106.820312 -34.136719 L 106.820312 -45.761719 C 106.820312 -43.464844 107.609375 -41.527344 109.1875 -39.949219 L 107.902344 -41.234375 L 48.011719 -190.121094 L 47.882812 -190.566406 C 47.871094 -190.605469 47.867188 -190.625 47.863281 -190.628906 C 47.890625 -190.566406 47.929688 -190.5 47.976562 -190.421875 C 48.164062 -190.128906 48.414062 -189.867188 48.726562 -189.632812 C 49.035156 -189.398438 49.351562 -189.234375 49.675781 -189.140625 C 49.757812 -189.117188 49.824219 -189.101562 49.882812 -189.09375 C 49.871094 -189.097656 49.839844 -189.097656 49.792969 -189.097656 L 24.183594 -189.097656 C 24.335938 -189.097656 24.585938 -189.160156 24.9375 -189.285156 C 25.882812 -189.617188 26.699219 -190.210938 27.390625 -191.054688 C 27.246094 -190.875 27.152344 -190.757812 27.117188 -190.699219 C 27.308594 -190.996094 27.484375 -191.382812 27.640625 -191.859375 L 19.207031 -194.667969 L 27.722656 -192.113281 C 27.839844 -192.507812 27.886719 -192.824219 27.855469 -193.0625 C 27.882812 -192.847656 27.984375 -192.519531 28.160156 -192.078125 L 94.550781 -27.996094 L 86.308594 -24.660156 L 94.261719 -28.636719 L 95.210938 -26.738281 C 95.714844 -25.730469 96.113281 -24.789062 96.40625 -23.914062 L 96.480469 -23.691406 L 96.542969 -23.460938 C 97.742188 -19.101562 100.175781 -15.550781 103.839844 -12.816406 C 107.558594 -10.042969 111.671875 -8.65625 116.183594 -8.65625 C 120.300781 -8.65625 124.039062 -9.847656 127.398438 -12.230469 L 127.957031 -12.625 L 128.570312 -12.933594 C 129.289062 -13.292969 129.707031 -13.527344 129.816406 -13.636719 L 130.058594 -13.878906 L 130.316406 -14.101562 C 132.566406 -16.03125 135.222656 -20.65625 138.285156 -27.972656 L 204.195312 -192.042969 C 204.382812 -192.507812 204.488281 -192.847656 204.515625 -193.0625 C 204.484375 -192.824219 204.53125 -192.507812 204.648438 -192.113281 L 204.589844 -192.3125 L 204.539062 -192.511719 C 204.707031 -191.832031 204.960938 -191.242188 205.292969 -190.746094 C 205.355469 -190.648438 205.417969 -190.5625 205.472656 -190.5 L 205.453125 -190.515625 C 206.089844 -189.878906 206.789062 -189.441406 207.546875 -189.207031 C 207.71875 -189.152344 207.871094 -189.117188 208.003906 -189.097656 Z M 207.949219 -189.097656 "/></g></g></g><g fill="#a6a6a6" fill-opacity="1"><g transform="translate(915.739923, 699.90471)"><g><path d="M 47.421875 -204.273438 C 49.882812 -204.273438 52.644531 -203.4375 55.710938 -201.765625 C 60.539062 -199.132812 62.953125 -194.238281 62.953125 -187.082031 L 62.953125 -8.0625 C 62.953125 -0.90625 60.539062 3.988281 55.710938 6.621094 C 52.644531 8.292969 49.882812 9.128906 47.421875 9.128906 L 25.609375 9.128906 C 23.148438 9.128906 20.386719 8.292969 17.320312 6.621094 C 12.492188 3.988281 10.078125 -0.90625 10.078125 -8.0625 L 10.078125 -187.082031 C 10.078125 -194.238281 12.492188 -199.132812 17.320312 -201.765625 C 20.386719 -203.4375 23.148438 -204.273438 25.609375 -204.273438 Z M 47.421875 -186.488281 L 25.609375 -186.488281 C 26.148438 -186.488281 26.5625 -186.539062 26.847656 -186.640625 C 26.625 -186.5625 26.289062 -186.398438 25.835938 -186.152344 C 26.890625 -186.726562 27.589844 -187.46875 27.933594 -188.375 C 27.886719 -188.246094 27.859375 -187.8125 27.859375 -187.082031 L 27.859375 -8.0625 C 27.859375 -7.332031 27.886719 -6.898438 27.933594 -6.769531 C 27.589844 -7.675781 26.890625 -8.414062 25.835938 -8.992188 C 26.289062 -8.746094 26.625 -8.582031 26.847656 -8.503906 C 26.5625 -8.605469 26.148438 -8.65625 25.609375 -8.65625 L 47.421875 -8.65625 C 46.882812 -8.65625 46.46875 -8.605469 46.183594 -8.503906 C 46.40625 -8.582031 46.742188 -8.746094 47.195312 -8.992188 C 46.140625 -8.414062 45.4375 -7.675781 45.097656 -6.769531 C 45.144531 -6.898438 45.167969 -7.332031 45.167969 -8.0625 L 45.167969 -187.082031 C 45.167969 -187.8125 45.144531 -188.246094 45.097656 -188.375 C 45.4375 -187.46875 46.140625 -186.726562 47.195312 -186.152344 C 46.742188 -186.398438 46.40625 -186.5625 46.183594 -186.640625 C 46.46875 -186.539062 46.882812 -186.488281 47.421875 -186.488281 Z M 47.421875 -186.488281 "/></g></g></g><g fill="#a6a6a6" fill-opacity="1"><g transform="translate(1000.626189, 699.90471)"><g><path d="M 207.949219 -206.882812 C 212.140625 -206.882812 215.503906 -205.617188 218.03125 -203.089844 C 219.980469 -201.140625 221.234375 -199.050781 221.789062 -196.828125 L 213.164062 -194.667969 L 221.679688 -197.226562 C 222.75 -193.660156 222.425781 -189.734375 220.710938 -185.441406 L 154.785156 -21.34375 C 150.578125 -11.277344 146.277344 -4.359375 141.890625 -0.597656 L 136.101562 -7.351562 L 142.390625 -1.0625 C 140.917969 0.40625 138.964844 1.753906 136.523438 2.972656 L 132.546875 -4.980469 L 137.691406 2.273438 C 131.25 6.84375 124.082031 9.128906 116.183594 9.128906 C 107.734375 9.128906 100.074219 6.566406 93.203125 1.4375 C 86.277344 -3.734375 81.671875 -10.460938 79.394531 -18.746094 L 87.96875 -21.101562 L 79.535156 -18.292969 C 79.507812 -18.367188 79.433594 -18.53125 79.304688 -18.785156 L 78.199219 -21 L 11.675781 -185.40625 C 9.949219 -189.722656 9.621094 -193.660156 10.6875 -197.226562 L 10.726562 -197.355469 L 10.769531 -197.480469 C 11.273438 -198.992188 12.226562 -200.601562 13.628906 -202.316406 C 16.117188 -205.359375 19.636719 -206.882812 24.183594 -206.882812 L 49.792969 -206.882812 C 53.507812 -206.882812 56.710938 -205.875 59.398438 -203.859375 C 62.097656 -201.832031 63.960938 -199.03125 64.984375 -195.453125 L 56.433594 -193.011719 L 64.683594 -196.328125 L 123.722656 -49.554688 L 115.472656 -46.238281 L 121.761719 -52.523438 C 123.65625 -50.628906 124.601562 -48.375 124.601562 -45.761719 L 124.601562 -45.527344 L 115.710938 -45.527344 L 113.554688 -54.152344 L 114.503906 -54.390625 L 116.660156 -45.761719 L 110.371094 -52.050781 L 110.492188 -52.167969 C 108.832031 -50.511719 108.003906 -48.535156 108.003906 -46.238281 L 108.003906 -47.933594 L 166.765625 -196.398438 L 166.816406 -196.511719 C 168.171875 -199.679688 170.085938 -202.15625 172.558594 -203.945312 C 175.261719 -205.902344 178.363281 -206.882812 181.867188 -206.882812 Z M 207.949219 -189.097656 L 181.867188 -189.097656 C 182.207031 -189.097656 182.582031 -189.246094 182.992188 -189.542969 C 183.152344 -189.660156 183.269531 -189.769531 183.347656 -189.871094 C 183.300781 -189.8125 183.242188 -189.691406 183.164062 -189.507812 L 174.988281 -193.011719 L 183.257812 -189.738281 L 125.164062 -42.964844 L 116.898438 -46.238281 L 125.789062 -46.238281 C 125.789062 -43.625 124.882812 -41.410156 123.066406 -39.59375 L 121.207031 -37.734375 L 106.820312 -34.136719 L 106.820312 -45.761719 C 106.820312 -43.464844 107.609375 -41.527344 109.1875 -39.949219 L 107.902344 -41.234375 L 48.011719 -190.121094 L 47.882812 -190.566406 C 47.871094 -190.605469 47.867188 -190.625 47.863281 -190.628906 C 47.890625 -190.566406 47.929688 -190.5 47.976562 -190.421875 C 48.164062 -190.128906 48.414062 -189.867188 48.726562 -189.632812 C 49.035156 -189.398438 49.351562 -189.234375 49.675781 -189.140625 C 49.757812 -189.117188 49.824219 -189.101562 49.882812 -189.09375 C 49.871094 -189.097656 49.839844 -189.097656 49.792969 -189.097656 L 24.183594 -189.097656 C 24.335938 -189.097656 24.585938 -189.160156 24.9375 -189.285156 C 25.882812 -189.617188 26.699219 -190.210938 27.390625 -191.054688 C 27.246094 -190.875 27.152344 -190.757812 27.117188 -190.699219 C 27.308594 -190.996094 27.484375 -191.382812 27.640625 -191.859375 L 19.207031 -194.667969 L 27.722656 -192.113281 C 27.839844 -192.507812 27.886719 -192.824219 27.855469 -193.0625 C 27.882812 -192.847656 27.984375 -192.519531 28.160156 -192.078125 L 94.550781 -27.996094 L 86.308594 -24.660156 L 94.261719 -28.636719 L 95.210938 -26.738281 C 95.714844 -25.730469 96.113281 -24.789062 96.40625 -23.914062 L 96.480469 -23.691406 L 96.542969 -23.460938 C 97.742188 -19.101562 100.175781 -15.550781 103.839844 -12.816406 C 107.558594 -10.042969 111.671875 -8.65625 116.183594 -8.65625 C 120.300781 -8.65625 124.039062 -9.847656 127.398438 -12.230469 L 127.957031 -12.625 L 128.570312 -12.933594 C 129.289062 -13.292969 129.707031 -13.527344 129.816406 -13.636719 L 130.058594 -13.878906 L 130.316406 -14.101562 C 132.566406 -16.03125 135.222656 -20.65625 138.285156 -27.972656 L 204.195312 -192.042969 C 204.382812 -192.507812 204.488281 -192.847656 204.515625 -193.0625 C 204.484375 -192.824219 204.53125 -192.507812 204.648438 -192.113281 L 204.589844 -192.3125 L 204.539062 -192.511719 C 204.707031 -191.832031 204.960938 -191.242188 205.292969 -190.746094 C 205.355469 -190.648438 205.417969 -190.5625 205.472656 -190.5 L 205.453125 -190.515625 C 206.089844 -189.878906 206.789062 -189.441406 207.546875 -189.207031 C 207.71875 -189.152344 207.871094 -189.117188 208.003906 -189.097656 Z M 207.949219 -189.097656 "/></g></g></g><g clip-path="url(#d9e4a2b9eb)"><g transform="matrix(1, 0, 0, 1, 0, 0.000000000000113687)"><g clip-path="url(#526be3cbf1)"><g clip-path="url(#8e0a046779)"><g mask="url(#92135e07e8)"><g transform="matrix(1, 0, 0, 1, 0, 0.000000000000113687)"><g clip-path="url(#e48760cf1b)"><g clip-path="url(#1656eadfe4)"><path fill="url(#f4a858ca04)" d="M 0 47.71875 L 0 1233.511719 L 1500 1233.511719 L 1500 47.71875 Z M 0 47.71875 " fill-rule="nonzero"/></g></g></g></g></g></g></g></g></g></g></svg>